<svg width="215" height="215" viewBox="0 0 215 215" fill="none" xmlns="http://www.w3.org/2000/svg">
<g filter="url(#filter0_i)">
<rect x="214.96" y="107.48" width="152" height="152" rx="25" transform="rotate(135 214.96 107.48)" fill="white"/>
</g>
<rect x="214.253" y="107.48" width="151" height="151" rx="24.5" transform="rotate(135 214.253 107.48)" stroke="#28B2A5"/>
<rect x="53" y="78" width="10" height="58" rx="5" fill="#5EAFAB" fill-opacity="0.37"/>
<rect x="126" y="62" width="11" height="90" rx="5.5" fill="#5EAFAB" fill-opacity="0.37"/>
<rect x="77" y="62" width="11" height="90" rx="5.5" fill="#5EAFAB" fill-opacity="0.37"/>
<rect x="151" y="78" width="10" height="58" rx="5" fill="#28B3A5"/>
<rect x="102" y="51" width="10" height="112" rx="5" fill="#5EAFAB" fill-opacity="0.37"/>
<path d="M102 81C102 78.2386 104.239 76 107 76V76C109.761 76 112 78.2386 112 81V110C112 112.761 109.761 115 107 115V115C104.239 115 102 112.761 102 110V81Z" fill="#28B3A5"/>
<rect x="102" y="123" width="10" height="40" rx="5" fill="#28B3A5"/>
<rect x="102" y="51" width="10" height="19" rx="5" fill="#28B3A5"/>
<rect x="137" y="152" width="11" height="40" rx="5.5" transform="rotate(-180 137 152)" fill="#28B3A5"/>
<rect x="137" y="104" width="11" height="42" rx="5.5" transform="rotate(-180 137 104)" fill="#28B3A5"/>
<rect x="77" y="62" width="11" height="56" rx="5.50001" fill="#28B3A5"/>
<rect x="77" y="132" width="11" height="20" rx="5.5" fill="#28B3A5"/>
<rect x="63" y="136" width="10" height="32" rx="5" transform="rotate(-180 63 136)" fill="#28B3A5"/>
<rect x="63" y="96" width="10" height="18" rx="5" transform="rotate(-180 63 96)" fill="#28B3A5"/>
<defs>
<filter id="filter0_i" x="-7.62939e-06" y="3.33786e-06" width="214.96" height="214.96" filterUnits="userSpaceOnUse" color-interpolation-filters="sRGB">
<feFlood flood-opacity="0" result="BackgroundImageFix"/>
<feBlend mode="normal" in="SourceGraphic" in2="BackgroundImageFix" result="shape"/>
<feColorMatrix in="SourceAlpha" type="matrix" values="0 0 0 0 0 0 0 0 0 0 0 0 0 0 0 0 0 0 127 0" result="hardAlpha"/>
<feMorphology radius="4" operator="erode" in="SourceAlpha" result="effect1_innerShadow"/>
<feOffset/>
<feGaussianBlur stdDeviation="3.5"/>
<feComposite in2="hardAlpha" operator="arithmetic" k2="-1" k3="1"/>
<feColorMatrix type="matrix" values="0 0 0 0 0.301961 0 0 0 0 0.713726 0 0 0 0 0.67451 0 0 0 0.81 0"/>
<feBlend mode="normal" in2="shape" result="effect1_innerShadow"/>
</filter>
</defs>
</svg>
