<svg width="197" height="197" viewBox="0 0 197 197" fill="none" xmlns="http://www.w3.org/2000/svg">
<g filter="url(#filter0_i)">
<rect x="196.434" y="196.434" width="195.869" height="195.869" rx="25" transform="rotate(-180 196.434 196.434)" fill="white"/>
</g>
<rect x="195.934" y="195.934" width="194.869" height="194.869" rx="24.5" transform="rotate(-180 195.934 195.934)" stroke="#28B2A5"/>
<path d="M132.125 129.625C133.208 129.625 134.083 129.958 134.75 130.625C135.5 131.292 135.875 132.167 135.875 133.25C135.875 134.333 135.5 135.25 134.75 136C134.083 136.667 133.208 137 132.125 137H87.5C86.4167 137 85.5 136.667 84.75 136C84.0833 135.25 83.75 134.333 83.75 133.25V53.25C83.75 52.1667 84.125 51.2917 84.875 50.625C85.625 49.875 86.5833 49.5 87.75 49.5C88.8333 49.5 89.75 49.875 90.5 50.625C91.25 51.2917 91.625 52.1667 91.625 53.25V129.625H132.125Z" fill="#28B3A5"/>
<defs>
<filter id="filter0_i" x="0.565674" y="0.565613" width="195.869" height="195.869" filterUnits="userSpaceOnUse" color-interpolation-filters="sRGB">
<feFlood flood-opacity="0" result="BackgroundImageFix"/>
<feBlend mode="normal" in="SourceGraphic" in2="BackgroundImageFix" result="shape"/>
<feColorMatrix in="SourceAlpha" type="matrix" values="0 0 0 0 0 0 0 0 0 0 0 0 0 0 0 0 0 0 127 0" result="hardAlpha"/>
<feMorphology radius="4" operator="erode" in="SourceAlpha" result="effect1_innerShadow"/>
<feOffset/>
<feGaussianBlur stdDeviation="3.5"/>
<feComposite in2="hardAlpha" operator="arithmetic" k2="-1" k3="1"/>
<feColorMatrix type="matrix" values="0 0 0 0 0.301961 0 0 0 0 0.713726 0 0 0 0 0.67451 0 0 0 0.81 0"/>
<feBlend mode="normal" in2="shape" result="effect1_innerShadow"/>
</filter>
</defs>
</svg>
